<?xml version="1.0" encoding="UTF-8"?>
<svg id="Calque_1" xmlns="http://www.w3.org/2000/svg" version="1.1" width="1200" height="1200" viewBox="0 0 1200 1200">
  <!-- Generator: Adobe Illustrator 29.3.1, SVG Export Plug-In . SVG Version: 2.1.0 Build 151)  -->
  <defs>
    <style>
      .st0 {
        fill: #f2be2f;
        stroke: #f2be2f;
        stroke-width: .8px;
      }

      .st0, .st1 {
        stroke-miterlimit: 10;
      }

      .st2 {
        fill: #254180;
      }

      .st3, .st1 {
        fill: #fff;
      }

      .st1 {
        stroke: #254180;
        stroke-width: 9.5px;
      }
    </style>
  </defs>
  <circle class="st3" cx="600" cy="600" r="572.7"/>
  <circle class="st1" cx="600" cy="600" r="551.6"/>
  <circle class="st2" cx="600" cy="600" r="534"/>
  <g>
    <path class="st3" d="M873.8,353.6h-22.2l-20.9-23.5c-77.5-79.3-188.7-112.7-297.8-90.2-72.7,15-137.9,56.3-184.4,113.6h-22.2c-.6-3.9,2.1-7.1,3.1-10.7s3-10.9,3.5-14.9c1.5-11.4-3.3-23,4.6-33,7.7-9.8,18.7-5.8,29.3-6.7,30.2-2.6,53.3-17.6,68.4-43.8s8.6-20.9,13.6-25.7,14.7-8.1,20.1-7.5c5.3.5,16.7,6.3,23,8,30.7,8.2,57.2,3,81.6-17.2,4.4-3.6,12.6-13.3,17.4-15.2s12.7-1.5,16.7-.5,14.2,12.1,18.6,15.7c24.7,20,51.7,25.8,82.6,17.4,5.7-1.6,11.6-4.5,17.2-6.2,7-2.2,8.2-2.2,15.2.2,15.1,5.1,14.9,14.8,21.5,27.1,15,28.1,37.7,45.3,70.2,47.8,10.8.8,22.1-3.1,29.7,7.1,6.9,9.2,3.1,21.1,4.3,31.7.5,4.2,2.2,10.9,3.3,15.1s3.5,7.3,3.3,11.3h.3Z"/>
    <g>
      <path class="st3" d="M875.2,450.1c18.7-1.3,34.5,2.4,49.5,13.6s23,24.1,25,36.1c2.4,14.4-13.1,26.7-26,18.5-5.8-3.7-5.7-8-8.5-13.3-12.4-23.9-43.6-28.4-61.2-7.5-12.6,14.9-11.1,41.9,3.3,55.3,13.7,12.7,29.7,7.6,45.9,11.9,24.8,6.6,49,32.6,54.7,57.5,16.3,71.7-64.7,126.9-124.3,82.4-12.7-9.5-30.7-32.5-28.5-49.2,1.9-14.2,22.3-19.2,30.4-8,4.4,6.1,4.7,14.1,10.5,21.3,18.1,22.4,52,22.1,69.8-.5,19.4-24.5,6.3-63.4-24.4-70.1-15.5-3.3-26-.8-41.4-8.8-63.5-32.9-46.3-134.2,25.1-139.3h.1Z"/>
      <path class="st3" d="M300.1,487.8c31-3.6,62.9,11.5,74.9,41.1,3.8,9.5,4.1,18.3-4.8,24.8s-19.5,3-24-5.3-5.4-14.8-15-21c-21.3-13.9-48.5-3.7-55.7,20.4l-.4,146.1c5.2,32.2,48.7,40.9,66,13.2,3.3-5.3,4.5-12.6,9.8-16.2,5.3-3.6,13.2-3.5,18.6,0,14.8,9.2,6,26.3-1.6,37.3-37.4,54.6-124.5,29.2-127.1-36.7,2-45.7-2.6-93.6,0-139s27.5-60.9,59.3-64.6h0Z"/>
      <path class="st3" d="M500.4,395.1h0c-39,0-70.5,31.6-70.5,70.5v184.1c0,9.5,7.7,17.2,17.2,17.2h0c9.5,0,17.2-7.7,17.2-17.2v-109.8h71.9v109.6c0,9.6,7.8,17.4,17.4,17.4h0c9.6,0,17.4-7.8,17.4-17.4v-184c0-39-31.6-70.5-70.5-70.5h-.1ZM536.3,504.3h-72v-38.7h0c0-19.9,16.1-36,36-36s36,16.1,36,36h0v38.7Z"/>
      <path class="st3" d="M746.7,528.7c-19.5-15.4-37.7-13-61-13.5-13.2-.3-26-1.5-39.3,0-7.1.8-11.6,6.2-14.3,12.4l-.3,241.5c3,9.9,11.1,14.5,21.3,13,4.3-.6,11.5-7.9,12.2-12.1v-113.8l1.3-1.3h47.7c5.7,0,20-6,25.3-9.1,44-25.7,47-85.8,7.2-117.2h-.1ZM740.6,585.7c0,20-16.3,36.3-36.3,36.3h-37.2c-.9,0-1.7-.8-1.7-1.7v-69.2c0-.9.8-1.7,1.7-1.7h37.2c20,0,36.3,16.3,36.3,36.3h0Z"/>
    </g>
    <g>
      <path class="st3" d="M441,987.2c0-1.3.5-2.8,1.3-4.1l16.9-30.8c.6-1.2,2-1.5,3.1-.9,1.2.6,1.5,2,.9,3.1l-16.9,30.8c-.5.9-.6,1.5-.6,1.8,0,.5,2.2.6,2.5.6,5.2,0,15.1-3.3,18.5-5.7-4.7-3.3-7.7-6.8-7.7-10.5,0-7,10.9-10.7,16.4-12.9,8-3.2,11-4.9,11-7s-5.2-4.2-15.8-4.2-28.6,3.7-41.4,7.9c-1.2.4-2.5-.2-2.8-1.4-.5-1.2.2-2.5,1.4-2.9,14.2-4.8,28.6-8.2,42.8-8.2s20.4,1.5,20.4,8.8-5.9,8.1-13.8,11.2c-4.2,1.7-13.6,5.3-13.6,8.7s1.4,3.9,7.2,7.7c.8.6,1.5,1.5,1.5,2.6,0,5.3-17.1,10.5-24,10.5s-7.2-1.5-7.2-5.2h0Z"/>
      <path class="st3" d="M488.3,984.7l8.4-19c.5-1.2,1.8-1.7,3-1.2s1.7,1.8,1.2,3l-8,18.2c-.5,1.3-.6,1.7-.6,1.9,5.8,0,21-6.9,37.8-17.2,1.2-.7,2.6-.3,3.2.8.7,1.2.3,2.5-.8,3.2-17.9,10.8-33.7,17.9-40.3,17.9s-5.5-4.2-3.9-7.6h0ZM501.4,959.1c-.8-1-.5-2.5.5-3.2,7.7-5.9,14.9-10.1,22.7-12.9,1.1-.4,2.6.2,3,1.4s0,2.4-1.4,2.9c-7.1,2.7-13.9,6.5-21.6,12.3-1,.8-2.5.5-3.2-.5h0Z"/>
      <path class="st3" d="M519.4,988.8c0-6.3,14.1-24.6,20.6-24.6s3.2,1.8,3.2,3.5-1.6,5.9-4.2,9.9c-.7,2.7-2,7.9-1.4,10.2,5.9,0,20.3-8.5,34.4-17.2,1.1-.7,2.5-.4,3.2.7.7,1.1.4,2.5-.7,3.2-14.1,8.5-29.1,17.9-36.6,17.9s-4.8-2.4-4.8-5.2.2-1.7.5-3c-.8,1.1-1.7,2.3-2.6,3.2-3.1,3-6.1,5-8.3,5s-3.3-1.7-3.3-3.5h0ZM538.2,969.6c-4.5,2.6-12.1,11.8-13.9,17.4,5.4-3,12.1-12.1,13.9-17.4Z"/>
      <path class="st3" d="M566.6,992.1l-1.2-1.2c-.5-.7-.6-1.5-.4-2.2l8.5-22.9c.5-1.2,1.8-1.8,2.9-1.4,1.2.5,1.8,1.8,1.4,3l-4.5,11.7,12.8-20.5c.6-1,1.9-1.4,3-.8,1.1.6,1.5,1.8,1.1,3-1.8,4-2.6,7.2-2.6,9.3s2.4,4.2,4.9,4.2c5.2,0,16.7-2.5,23.8-4.2,1.2-.3,2.5.5,2.8,1.7s-.5,2.5-1.7,2.8c-.6.2-17.8,4.3-24.9,4.3s-8.9-3.3-9.1-7.8l-13.2,20.6c-.4.6-1.1,1.1-1.8,1.1s-1.4-.3-1.8-.8h0Z"/>
      <path class="st3" d="M610.1,992.1l-1.2-1.2c-.5-.7-.6-1.5-.4-2.2l8.5-22.9c.5-1.2,1.8-1.8,2.9-1.4,1.2.5,1.8,1.8,1.4,3l-4.5,11.7,12.8-20.5c.6-1,1.9-1.4,3-.8,1.1.6,1.5,1.8,1.1,3-1.8,4-2.6,7.2-2.6,9.3s2.4,4.2,4.9,4.2c5.2,0,16.7-2.5,23.8-4.2,1.2-.3,2.5.5,2.8,1.7s-.5,2.5-1.7,2.8c-.6.2-17.8,4.3-24.9,4.3s-8.9-3.3-9.1-7.8l-13.2,20.6c-.4.6-1.1,1.1-1.8,1.1s-1.4-.3-1.8-.8h0Z"/>
      <path class="st3" d="M652.7,984.7l8.4-19c.5-1.2,1.8-1.7,3-1.2s1.7,1.8,1.2,3l-8,18.2c-.5,1.3-.6,1.7-.6,1.9,5.8,0,21-6.9,37.8-17.2,1.2-.7,2.6-.3,3.2.8.7,1.2.3,2.5-.8,3.2-17.9,10.8-33.7,17.9-40.3,17.9s-5.5-4.2-3.9-7.6h0ZM665.8,959.1c-.8-1-.5-2.5.5-3.2,7.7-5.9,14.9-10.1,22.7-12.9,1.1-.4,2.6.2,3,1.4s0,2.4-1.4,2.9c-7.1,2.7-13.9,6.5-21.6,12.3-1,.8-2.5.5-3.2-.5Z"/>
      <path class="st3" d="M688.2,984.7l4.9-11c.9-2.2,1.2-4.1,1.2-5.5,0-3.2-2.3-5.4-5.6-6.2-1-.2-1.8-1.2-1.8-2.2s.7-2,1.8-2.2c3.6-.8,8.4-1.8,12.6-2.5l4.9-10.9c.5-1.2,1.8-1.7,3-1.2s1.7,1.8,1.2,3l-3.7,8.5c4-.4,8.4-.6,13.3-.6s2.3,1,2.3,2.3-1,2.3-2.3,2.3c-5.9,0-10.9.3-15.5.8l-12.1,27.3c-.2.6-.3,1.1.2,1.1,5.4,0,21-6.9,37.9-17.2,1.2-.7,2.6-.3,3.2.8.7,1.2.3,2.5-.8,3.2-18,10.9-34.3,17.9-40.7,17.9s-5.5-3.9-3.9-7.6h-.1ZM699.3,959.9c-1.5.2-3.2.3-4.5.7,1.1.8,2.5,2.2,2.5,3.8l1.9-4.5h0Z"/>
      <path class="st3" d="M716.7,1010.2c-1.8-2-2.8-4.2-2.8-5.5s.8-2.4,1.5-3c3.9-3.3,8.6-6.7,14.4-10.2.6-1.8.9-3.5.9-4.6,0-1.8-.8-2.3-2.8-2.8-.9-.2-1.7-.8-1.7-2.2s.6-2,1.6-2.3c1.8-.5,3.6-1.5,6.1-3.1,3.9-2.5,7.4-5.8,8.7-7.9-.9-.7-8.2.2-10.2,1.5l.8,1c.8,1,.7,2.4-.2,3.2-1,.8-2.5.7-3.3-.2-.9-1.2-1.9-2.4-1.9-4.2,0-5.4,11.5-6.1,13.5-6.1,3.2,0,6.3.9,6.3,4.1s-6.1,9.4-12.1,13.2c-.6.4-1.2.8-1.9,1.1.4.3.7.6.9,1,.8,1.5,1.1,3.6.8,5.3,11.1-6.3,21.7-11.6,35.3-17.9,1.2-.5,2.5,0,3.1,1.1.5,1.2,0,2.5-1.1,3.1-14.5,6.8-26.8,12.9-38.9,20-2.9,8.1-8.4,17.6-8.7,18-1,1.6-2.1,1.7-2.8,1.7-1.4,0-2.2-.5-5.4-4.1v-.2ZM727.1,998.6c-3.2,2.2-6.2,4.5-8.4,6.5,1.2,1.8,2.2,3,3,3.8,2.7-4.8,4.2-7.6,5.4-10.2h0Z"/>
    </g>
    <g>
      <path class="st0" d="M289.7,838.2v23.2c2-3.1,5.4-5,9.3-5,6.6,0,12,6.5,12,14.4s-5.4,14.4-12,14.4-7.3-1.9-9.3-5v2.6c0,1.2-.8,2.1-1.8,2.1s-1.8-.9-1.8-2.1v-44.6c0-1.2.8-2.1,1.8-2.1s1.8.9,1.8,2.1h0ZM307.4,870.8c0-5.7-4-10.4-8.9-10.4s-8.9,4.7-8.9,10.4,4,10.4,8.9,10.4,8.9-4.7,8.9-10.4Z"/>
      <path class="st0" d="M333.1,846.4v2.9c0,1.2-.8,2.1-1.8,2.1s-1.8-.9-1.8-2.1v-2.9c0-1.1.8-2.1,1.8-2.1s1.8,1,1.8,2.1ZM333.1,858.8v24c0,1.2-.8,2.1-1.8,2.1s-1.8-.9-1.8-2.1v-24c0-1.1.8-2.1,1.8-2.1s1.8,1,1.8,2.1Z"/>
      <path class="st0" d="M377.6,870.8c0,1.1-.7,1.9-1.7,1.9h-19.4c.8,4.7,4.4,8.4,8.7,8.4s4.6-1.1,6.3-3c.7-.8,1.8-.8,2.5,0,.6.8.6,2.1,0,3-2.4,2.7-5.5,4.2-8.8,4.2-6.8,0-12.4-6.5-12.4-14.4s5.5-14.4,12.4-14.4,6.4,1.4,8.7,4.1c2.3,2.6,3.7,6.3,3.7,10.3h0ZM356.5,868.9h17.4c-.8-4.7-4.4-8.4-8.7-8.4s-7.9,3.6-8.7,8.4h0ZM359.8,845.5c-.7-.8-.7-2.1,0-2.9.6-.8,1.8-.8,2.5,0l4.7,5.5c.7.8.7,2.1,0,2.9-.7.8-1.9.8-2.5,0l-4.7-5.5Z"/>
      <path class="st0" d="M412,859.1c0,1.2-.8,2.1-1.8,2.1-5.5,0-10,5.2-10,11.7v10c0,1.2-.8,2.1-1.8,2.1s-1.8-.9-1.8-2.1v-24c0-1.2.8-2.1,1.8-2.1s1.8.9,1.8,2.1v4c.2-.4.5-.8.8-1.2,2.5-3,5.7-4.6,9.2-4.6s1.8.9,1.8,2.1h0Z"/>
      <path class="st0" d="M452.2,870.8c0,1.1-.7,1.9-1.7,1.9h-19.4c.8,4.7,4.4,8.4,8.7,8.4s4.6-1.1,6.3-3c.7-.8,1.8-.8,2.5,0,.6.8.6,2.1,0,3-2.4,2.7-5.5,4.2-8.8,4.2-6.8,0-12.4-6.5-12.4-14.4s5.5-14.4,12.4-14.4,6.4,1.4,8.7,4.1c2.3,2.6,3.7,6.3,3.7,10.3h0ZM431.1,868.9h17.4c-.8-4.7-4.4-8.4-8.7-8.4s-7.9,3.6-8.7,8.4h0Z"/>
      <path class="st0" d="M473,883.2c-1.8-1.4-2.8-3.4-3-5.6,0-1.2.6-2.1,1.7-2.2.9,0,1.7.8,1.9,1.9.4,2.3,2.5,3.9,5.3,3.9s5.3-2.3,5.3-4.3c0-3.2-3.8-4.1-5.5-4.3-2.4-.3-4.3-1-5.7-2.2-1.7-1.4-2.6-3.4-2.6-5.7s.9-4.4,2.5-6c1.5-1.4,3.6-2.3,5.9-2.3,4.1,0,7.5,2.6,8.4,6.6.3,1.1-.3,2.2-1.2,2.5-.9.3-1.9-.3-2.2-1.4-.5-2.1-2.5-3.6-5-3.6s-4.9,1.8-4.9,4.1,3.2,3.6,5.1,3.8c2.4.3,4.4,1,5.8,2.2,1.8,1.5,2.8,3.6,2.8,6.1s-1,4.5-2.8,6.1c-1.7,1.5-3.8,2.3-6.1,2.3s-4.3-.8-5.9-2.1l.2.2Z"/>
      <path class="st0" d="M536.3,881.2c-2.2-2.6-3.5-6-3.5-9.7s1.2-7.2,3.5-9.8c1.5-1.8,3.1-3,4.5-4-1.5-1.8-2.5-3-2.8-3.2-1.8-2.1-2.7-4.8-2.7-7.8s.9-5.6,2.7-7.6,4.1-3.2,6.6-3.2,4.8,1.2,6.6,3.2,2.7,4.8,2.7,7.6-.9,5.7-2.7,7.8c-1.6,1.9-3.2,3.1-4.7,4l10.5,12.2c.7-.8,6.6-7.7,6.6-7.7.7-.8,1.8-.8,2.5,0s.7,2.1,0,2.9c0,0-5.9,6.9-6.6,7.7,3.1,3.6,6.8,8,6.8,8.1.7.8.7,2.1,0,2.9-.6.8-1.8.8-2.5,0,0,0-3.8-4.5-6.8-8-1.5,1.8-3.5,4-4,4.6-2.2,2.6-5.2,4-8.4,4s-6.1-1.4-8.4-4h.1ZM543.4,860.6c-1.6,1.1-3.1,2.1-4.7,4-1.5,1.9-2.4,4.3-2.4,6.9s.9,5,2.4,6.8c1.6,1.9,3.7,2.9,5.9,2.9s4.3-1,5.9-2.8l4-4.7-11.2-13h0ZM540.6,841.9c-1.1,1.3-1.7,3-1.7,4.7s.6,3.5,1.7,4.8l3.4,4c1.6-1,3.1-2.2,4.7-4,1.2-1.2,1.7-3,1.7-4.8s-.5-3.4-1.7-4.7c-1.1-1.3-2.5-2-4.1-2s-3,.7-4.1,2h0Z"/>
      <path class="st0" d="M612,903.4v-44.6c0-1.2.8-2.1,1.8-2.1s1.8.9,1.8,2.1v2.6c2-3.1,5.4-5,9.3-5,6.6,0,12,6.5,12,14.4s-5.4,14.4-12,14.4-7.3-1.9-9.3-5v23.2c0,1.2-.8,2.1-1.8,2.1s-1.8-.9-1.8-2.1h0ZM615.5,870.8c0,5.7,4,10.4,8.9,10.4s8.9-4.7,8.9-10.4-4-10.4-8.9-10.4-8.9,4.7-8.9,10.4Z"/>
      <path class="st0" d="M660.1,838.2v33.6c0,4.7,3.3,8.6,7.4,8.6s1.8.9,1.8,2.1-.8,2.1-1.8,2.1c-6,0-10.9-5.7-10.9-12.7v-33.6c0-1.2.8-2.1,1.8-2.1s1.8.9,1.8,2.1h0Z"/>
      <path class="st0" d="M710.6,858.8v24c0,1.2-.8,2.1-1.8,2.1s-1.8-.9-1.8-2.1v-2.6c-2,3.1-5.4,5-9.3,5-6.6,0-12-6.5-12-14.4s5.4-14.4,12-14.4,7.3,1.9,9.3,5v-2.6c0-1.2.8-2.1,1.8-2.1s1.8.9,1.8,2.1ZM707.1,870.8c0-5.7-4-10.4-8.9-10.4s-8.9,4.7-8.9,10.4,4,10.4,8.9,10.4,8.9-4.7,8.9-10.4Z"/>
      <path class="st0" d="M731.3,882.8v-24c0-1.2.8-2.1,1.8-2.1s1.8.9,1.8,2.1v1.7c1.9-2.8,4.7-4.1,7.9-4.1,5.8,0,10.4,5.7,10.4,12.7v13.7c0,1.2-.8,2.1-1.8,2.1s-1.8-.9-1.8-2.1v-13.7c0-4.7-3.3-8.6-7.4-8.6s-7.4,3.8-7.4,8.6v13.7c0,1.2-.8,2.1-1.8,2.1s-1.8-.9-1.8-2.1h0Z"/>
      <path class="st0" d="M772.5,870.8c0-8,5.6-14.4,12.4-14.4s6.4,1.5,8.8,4.3c.6.8.6,2.1,0,2.9-.7.8-1.8.8-2.5,0-1.7-1.9-3.9-3-6.3-3-4.9,0-8.9,4.6-8.9,10.3s4,10.3,8.9,10.3,4.6-1.1,6.3-3c.7-.8,1.8-.8,2.5,0,.6.8.6,2.1,0,3-2.4,2.7-5.5,4.2-8.8,4.2-6.8,0-12.4-6.5-12.4-14.4v-.2Z"/>
      <path class="st0" d="M812.9,882.8v-44.6c0-1.2.8-2.1,1.8-2.1s1.8.9,1.8,2.1v22.3c1.9-2.8,4.7-4.1,7.9-4.1,5.8,0,10.4,5.7,10.4,12.7v13.7c0,1.2-.8,2.1-1.8,2.1s-1.8-.9-1.8-2.1v-13.7c0-4.7-3.3-8.6-7.4-8.6s-7.4,3.8-7.4,8.6v13.7c0,1.2-.8,2.1-1.8,2.1s-1.8-.9-1.8-2.1h0Z"/>
      <path class="st0" d="M878.3,870.8c0,1.1-.7,1.9-1.7,1.9h-19.4c.8,4.7,4.4,8.4,8.7,8.4s4.6-1.1,6.3-3c.7-.8,1.8-.8,2.5,0,.6.8.6,2.1,0,3-2.4,2.7-5.5,4.2-8.8,4.2-6.8,0-12.4-6.5-12.4-14.4s5.6-14.4,12.4-14.4,6.4,1.4,8.7,4.1c2.3,2.6,3.7,6.3,3.7,10.3h0ZM857.2,868.9h17.4c-.8-4.7-4.4-8.4-8.7-8.4s-7.9,3.6-8.7,8.4Z"/>
      <path class="st0" d="M899.1,883.2c-1.8-1.4-2.8-3.4-3-5.6,0-1.2.6-2.1,1.7-2.2.9,0,1.7.8,1.9,1.9.4,2.3,2.5,3.9,5.3,3.9s5.3-2.3,5.3-4.3c0-3.2-3.8-4.1-5.5-4.3-2.4-.3-4.3-1-5.7-2.2-1.7-1.4-2.6-3.4-2.6-5.7s.9-4.4,2.5-6c1.5-1.4,3.6-2.3,5.9-2.3,4.1,0,7.5,2.6,8.4,6.6.3,1.1-.3,2.2-1.2,2.5s-1.9-.3-2.2-1.4c-.5-2.1-2.5-3.6-5-3.6s-4.9,1.8-4.9,4.1,3.2,3.6,5.1,3.8c2.4.3,4.4,1,5.8,2.2,1.8,1.5,2.8,3.6,2.8,6.1s-1,4.5-2.8,6.1c-1.7,1.5-3.8,2.3-6.1,2.3s-4.3-.8-5.9-2.1l.2.2Z"/>
    </g>
  </g>
</svg>