<?xml version="1.0" encoding="UTF-8"?>
<svg id="Calque_1" xmlns="http://www.w3.org/2000/svg" version="1.1" width="1200" height="1200" viewBox="0 0 1200 1200">
  <!-- Generator: Adobe Illustrator 29.3.1, SVG Export Plug-In . SVG Version: 2.1.0 Build 151)  -->
  <defs>
    <style>
      .st0 {
        fill: #254180;
      }

      .st1, .st2 {
        fill: #fff;
      }

      .st2 {
        stroke: #254180;
        stroke-width: 9.4px;
      }

      .st2, .st3 {
        stroke-miterlimit: 10;
      }

      .st3 {
        fill: #f2be2f;
        stroke: #f2be2f;
        stroke-width: .8px;
      }
    </style>
  </defs>
  <circle class="st1" cx="600" cy="600" r="594.7"/>
  <circle class="st2" cx="600" cy="600" r="544.7"/>
  <circle class="st0" cx="600" cy="600" r="527.3"/>
  <g>
    <path class="st1" d="M870.4,356.7h-21.9l-20.6-23.2c-76.5-78.3-186.3-111.3-294.1-89.1-71.8,14.8-136.2,55.6-182.1,112.2h-21.9c-.6-3.9,2.1-7,3.1-10.6s3-10.8,3.5-14.7c1.5-11.3-3.3-22.7,4.5-32.6,7.6-9.7,18.5-5.7,28.9-6.6,29.8-2.6,52.6-17.4,67.5-43.3,14.9-25.9,8.5-20.6,13.4-25.4s14.5-8,19.8-7.4c5.2.5,16.5,6.2,22.7,7.9,30.3,8.1,56.5,3,80.6-17,4.3-3.6,12.4-13.1,17.2-15s12.5-1.5,16.5-.5,14,11.9,18.4,15.5c24.4,19.8,51.1,25.5,81.6,17.2,5.6-1.6,11.5-4.4,17-6.1,6.9-2.2,8.1-2.2,15,.2,14.9,5,14.7,14.6,21.2,26.8,14.8,27.7,37.2,44.7,69.3,47.2,10.7.8,21.8-3.1,29.3,7,6.8,9.1,3.1,20.8,4.2,31.3.5,4.1,2.2,10.8,3.3,14.9s3.5,7.2,3.3,11.2h.3Z"/>
    <g>
      <path class="st1" d="M871.8,452c18.5-1.3,34.1,2.4,48.9,13.4,14.8,11.1,22.7,23.8,24.7,35.7,2.4,14.2-12.9,26.4-25.7,18.3-5.7-3.7-5.6-7.9-8.4-13.1-12.2-23.6-43.1-28-60.4-7.4-12.4,14.7-11,41.4,3.3,54.6,13.5,12.5,29.3,7.5,45.3,11.8,24.5,6.5,48.4,32.2,54,56.8,16.1,70.8-63.9,125.3-122.8,81.4-12.5-9.4-30.3-32.1-28.1-48.6,1.9-14,22-19,30-7.9,4.3,6,4.6,13.9,10.4,21,17.9,22.1,51.4,21.8,68.9-.5,19.2-24.2,6.2-62.6-24.1-69.2-15.3-3.3-25.7-.8-40.9-8.7-62.7-32.5-45.7-132.5,24.8-137.6h0Z"/>
      <path class="st1" d="M303.8,489.2c30.6-3.6,62.1,11.4,74,40.6,3.8,9.4,4,18.1-4.7,24.5s-19.3,3-23.7-5.2-5.3-14.6-14.8-20.7c-21-13.7-47.9-3.7-55,20.1l-.4,144.3c5.1,31.8,48.1,40.4,65.2,13,3.3-5.2,4.4-12.4,9.7-16,5.2-3.6,13-3.5,18.4,0,14.6,9.1,5.9,26-1.6,36.8-36.9,53.9-122.9,28.8-125.5-36.2,2-45.1-2.6-92.4,0-137.3s27.2-60.1,58.6-63.8h0Z"/>
      <path class="st1" d="M501.6,397.7h0c-38.5,0-69.6,31.2-69.6,69.6v181.8c0,9.4,7.6,17,17,17h0c9.4,0,17-7.6,17-17v-108.4h71v108.2c0,9.5,7.7,17.2,17.2,17.2h0c9.5,0,17.2-7.7,17.2-17.2v-181.7c0-38.5-31.2-69.6-69.6-69.6h0ZM537.1,505.5h-71.1v-38.2h0c0-19.7,15.9-35.6,35.6-35.6s35.6,15.9,35.6,35.6h0v38.2Z"/>
      <path class="st1" d="M744.9,529.6c-19.3-15.2-37.2-12.8-60.2-13.3-13-.3-25.7-1.5-38.8,0-7,.8-11.5,6.1-14.1,12.2l-.3,238.5c3,9.8,11,14.3,21,12.8,4.2-.6,11.4-7.8,12-11.9v-112.4l1.3-1.3h47.1c5.6,0,19.8-5.9,25-9,43.5-25.4,46.4-84.7,7.1-115.7h0ZM738.8,585.9c0,19.8-16.1,35.8-35.8,35.8h-36.7c-.9,0-1.7-.8-1.7-1.7v-68.3c0-.9.8-1.7,1.7-1.7h36.7c19.8,0,35.8,16.1,35.8,35.8h0Z"/>
    </g>
    <g>
      <path class="st1" d="M443,982.4c0-1.3.5-2.8,1.3-4l16.7-30.4c.6-1.2,2-1.5,3.1-.9,1.2.6,1.5,2,.9,3.1l-16.7,30.4c-.5.9-.6,1.5-.6,1.8,0,.5,2.2.6,2.5.6,5.1,0,14.9-3.3,18.3-5.6-4.6-3.3-7.6-6.7-7.6-10.4,0-6.9,10.8-10.6,16.2-12.7,7.9-3.2,10.9-4.8,10.9-6.9s-5.1-4.1-15.6-4.1-28.2,3.7-40.9,7.8c-1.2.4-2.5-.2-2.8-1.4-.5-1.2.2-2.5,1.4-2.9,14-4.7,28.2-8.1,42.3-8.1s20.1,1.5,20.1,8.7-5.8,8-13.6,11.1c-4.1,1.7-13.4,5.2-13.4,8.6s1.4,3.9,7.1,7.6c.8.6,1.5,1.5,1.5,2.6,0,5.2-16.9,10.4-23.7,10.4s-7.1-1.5-7.1-5.1h0Z"/>
      <path class="st1" d="M489.7,979.9l8.3-18.8c.5-1.2,1.8-1.7,3-1.2s1.7,1.8,1.2,3l-7.9,18c-.5,1.3-.6,1.7-.6,1.9,5.7,0,20.7-6.8,37.3-17,1.2-.7,2.6-.3,3.2.8.7,1.2.3,2.5-.8,3.2-17.7,10.7-33.3,17.7-39.8,17.7s-5.4-4.1-3.9-7.5h0ZM502.6,954.6c-.8-1-.5-2.5.5-3.2,7.6-5.8,14.7-10,22.4-12.7,1.1-.4,2.6.2,3,1.4s0,2.4-1.4,2.9c-7,2.7-13.7,6.4-21.3,12.1-1,.8-2.5.5-3.2-.5h0Z"/>
      <path class="st1" d="M520.4,984c0-6.2,13.9-24.3,20.3-24.3s3.2,1.8,3.2,3.5-1.6,5.8-4.1,9.8c-.7,2.7-2,7.8-1.4,10.1,5.8,0,20-8.4,34-17,1.1-.7,2.5-.4,3.2.7.7,1.1.4,2.5-.7,3.2-13.9,8.4-28.7,17.7-36.1,17.7s-4.7-2.4-4.7-5.1.2-1.7.5-3c-.8,1.1-1.7,2.3-2.6,3.2-3.1,3-6,4.9-8.2,4.9s-3.3-1.7-3.3-3.5h0ZM539,965c-4.4,2.6-11.9,11.7-13.7,17.2,5.3-3,11.9-11.9,13.7-17.2Z"/>
      <path class="st1" d="M567,987.2l-1.2-1.2c-.5-.7-.6-1.5-.4-2.2l8.4-22.6c.5-1.2,1.8-1.8,2.9-1.4,1.2.5,1.8,1.8,1.4,3l-4.4,11.6,12.6-20.2c.6-1,1.9-1.4,3-.8,1.1.6,1.5,1.8,1.1,3-1.8,4-2.6,7.1-2.6,9.2s2.4,4.1,4.8,4.1c5.1,0,16.5-2.5,23.5-4.1,1.2-.3,2.5.5,2.8,1.7s-.5,2.5-1.7,2.8c-.6.2-17.6,4.2-24.6,4.2s-8.8-3.3-9-7.7l-13,20.3c-.4.6-1.1,1.1-1.8,1.1s-1.4-.3-1.8-.8h0Z"/>
      <path class="st1" d="M610,987.2l-1.2-1.2c-.5-.7-.6-1.5-.4-2.2l8.4-22.6c.5-1.2,1.8-1.8,2.9-1.4,1.2.5,1.8,1.8,1.4,3l-4.4,11.6,12.6-20.2c.6-1,1.9-1.4,3-.8,1.1.6,1.5,1.8,1.1,3-1.8,4-2.6,7.1-2.6,9.2s2.4,4.1,4.8,4.1c5.1,0,16.5-2.5,23.5-4.1,1.2-.3,2.5.5,2.8,1.7s-.5,2.5-1.7,2.8c-.6.2-17.6,4.2-24.6,4.2s-8.8-3.3-9-7.7l-13,20.3c-.4.6-1.1,1.1-1.8,1.1s-1.4-.3-1.8-.8h0Z"/>
      <path class="st1" d="M652,979.9l8.3-18.8c.5-1.2,1.8-1.7,3-1.2s1.7,1.8,1.2,3l-7.9,18c-.5,1.3-.6,1.7-.6,1.9,5.7,0,20.7-6.8,37.3-17,1.2-.7,2.6-.3,3.2.8.7,1.2.3,2.5-.8,3.2-17.7,10.7-33.3,17.7-39.8,17.7s-5.4-4.1-3.9-7.5h0ZM665,954.6c-.8-1-.5-2.5.5-3.2,7.6-5.8,14.7-10,22.4-12.7,1.1-.4,2.6.2,3,1.4s0,2.4-1.4,2.9c-7,2.7-13.7,6.4-21.3,12.1-1,.8-2.5.5-3.2-.5Z"/>
      <path class="st1" d="M687.1,979.9l4.8-10.9c.9-2.2,1.2-4,1.2-5.4,0-3.2-2.3-5.3-5.5-6.1-1-.2-1.8-1.2-1.8-2.2s.7-2,1.8-2.2c3.6-.8,8.3-1.8,12.4-2.5l4.8-10.8c.5-1.2,1.8-1.7,3-1.2s1.7,1.8,1.2,3l-3.7,8.4c4-.4,8.3-.6,13.1-.6s2.3,1,2.3,2.3-1,2.3-2.3,2.3c-5.8,0-10.8.3-15.3.8l-11.9,27c-.2.6-.3,1.1.2,1.1,5.3,0,20.7-6.8,37.4-17,1.2-.7,2.6-.3,3.2.8.7,1.2.3,2.5-.8,3.2-17.8,10.8-33.9,17.7-40.2,17.7s-5.4-3.9-3.9-7.5h0ZM698.1,955.4c-1.5.2-3.2.3-4.4.7,1.1.8,2.5,2.2,2.5,3.8l1.9-4.4h0Z"/>
      <path class="st1" d="M715.2,1005.1c-1.8-2-2.8-4.1-2.8-5.4s.8-2.4,1.5-3c3.9-3.3,8.5-6.6,14.2-10.1.6-1.8.9-3.5.9-4.5,0-1.8-.8-2.3-2.8-2.8-.9-.2-1.7-.8-1.7-2.2s.6-2,1.6-2.3c1.8-.5,3.6-1.5,6-3.1,3.9-2.5,7.3-5.7,8.6-7.8-.9-.7-8.1.2-10.1,1.5l.8,1c.8,1,.7,2.4-.2,3.2-1,.8-2.5.7-3.3-.2-.9-1.2-1.9-2.4-1.9-4.1,0-5.3,11.4-6,13.3-6,3.2,0,6.2.9,6.2,4s-6,9.3-11.9,13c-.6.4-1.2.8-1.9,1.1.4.3.7.6.9,1,.8,1.5,1.1,3.6.8,5.2,11-6.2,21.4-11.5,34.9-17.7,1.2-.5,2.5,0,3.1,1.1.5,1.2,0,2.5-1.1,3.1-14.3,6.7-26.5,12.7-38.4,19.8-2.9,8-8.3,17.4-8.6,17.8-1,1.6-2.1,1.7-2.8,1.7-1.4,0-2.2-.5-5.3-4v-.2ZM725.5,993.6c-3.2,2.2-6.1,4.4-8.3,6.4,1.2,1.8,2.2,3,3,3.8,2.7-4.7,4.1-7.5,5.3-10.1h0Z"/>
    </g>
    <g>
      <path class="st3" d="M293.6,835.2v22.9c2-3.1,5.3-4.9,9.2-4.9,6.5,0,11.9,6.4,11.9,14.2s-5.3,14.2-11.9,14.2-7.2-1.9-9.2-4.9v2.6c0,1.2-.8,2.1-1.8,2.1s-1.8-.9-1.8-2.1v-44c0-1.2.8-2.1,1.8-2.1s1.8.9,1.8,2.1h0ZM311,867.4c0-5.6-4-10.3-8.8-10.3s-8.8,4.6-8.8,10.3,4,10.3,8.8,10.3,8.8-4.6,8.8-10.3Z"/>
      <path class="st3" d="M336.4,843.3v2.9c0,1.2-.8,2.1-1.8,2.1s-1.8-.9-1.8-2.1v-2.9c0-1.1.8-2.1,1.8-2.1s1.8,1,1.8,2.1ZM336.4,855.6v23.7c0,1.2-.8,2.1-1.8,2.1s-1.8-.9-1.8-2.1v-23.7c0-1.1.8-2.1,1.8-2.1s1.8,1,1.8,2.1Z"/>
      <path class="st3" d="M380.4,867.4c0,1.1-.7,1.9-1.7,1.9h-19.2c.8,4.6,4.3,8.3,8.6,8.3s4.5-1.1,6.2-3c.7-.8,1.8-.8,2.5,0,.6.8.6,2.1,0,3-2.4,2.7-5.4,4.1-8.7,4.1-6.7,0-12.2-6.4-12.2-14.2s5.4-14.2,12.2-14.2,6.3,1.4,8.6,4c2.3,2.6,3.7,6.2,3.7,10.2h0ZM359.5,865.5h17.2c-.8-4.6-4.3-8.3-8.6-8.3s-7.8,3.6-8.6,8.3h0ZM362.8,842.4c-.7-.8-.7-2.1,0-2.9.6-.8,1.8-.8,2.5,0l4.6,5.4c.7.8.7,2.1,0,2.9-.7.8-1.9.8-2.5,0l-4.6-5.4Z"/>
      <path class="st3" d="M414.3,855.9c0,1.2-.8,2.1-1.8,2.1-5.4,0-9.9,5.1-9.9,11.6v9.9c0,1.2-.8,2.1-1.8,2.1s-1.8-.9-1.8-2.1v-23.7c0-1.2.8-2.1,1.8-2.1s1.8.9,1.8,2.1v4c.2-.4.5-.8.8-1.2,2.5-3,5.6-4.5,9.1-4.5s1.8.9,1.8,2.1h0Z"/>
      <path class="st3" d="M454,867.4c0,1.1-.7,1.9-1.7,1.9h-19.2c.8,4.6,4.3,8.3,8.6,8.3s4.5-1.1,6.2-3c.7-.8,1.8-.8,2.5,0,.6.8.6,2.1,0,3-2.4,2.7-5.4,4.1-8.7,4.1-6.7,0-12.2-6.4-12.2-14.2s5.4-14.2,12.2-14.2,6.3,1.4,8.6,4c2.3,2.6,3.7,6.2,3.7,10.2h0ZM433.2,865.5h17.2c-.8-4.6-4.3-8.3-8.6-8.3s-7.8,3.6-8.6,8.3h0Z"/>
      <path class="st3" d="M474.6,879.7c-1.8-1.4-2.8-3.4-3-5.5,0-1.2.6-2.1,1.7-2.2.9,0,1.7.8,1.9,1.9.4,2.3,2.5,3.9,5.2,3.9s5.2-2.3,5.2-4.2c0-3.2-3.8-4-5.4-4.2-2.4-.3-4.2-1-5.6-2.2-1.7-1.4-2.6-3.4-2.6-5.6s.9-4.3,2.5-5.9c1.5-1.4,3.6-2.3,5.8-2.3,4,0,7.4,2.6,8.3,6.5.3,1.1-.3,2.2-1.2,2.5-.9.3-1.9-.3-2.2-1.4-.5-2.1-2.5-3.6-4.9-3.6s-4.8,1.8-4.8,4,3.2,3.6,5,3.8c2.4.3,4.3,1,5.7,2.2,1.8,1.5,2.8,3.6,2.8,6s-1,4.4-2.8,6c-1.7,1.5-3.8,2.3-6,2.3s-4.2-.8-5.8-2.1l.2.2Z"/>
      <path class="st3" d="M537.1,877.7c-2.2-2.6-3.5-5.9-3.5-9.6s1.2-7.1,3.5-9.7c1.5-1.8,3.1-3,4.4-4-1.5-1.8-2.5-3-2.8-3.2-1.8-2.1-2.7-4.7-2.7-7.7s.9-5.5,2.7-7.5,4-3.2,6.5-3.2,4.7,1.2,6.5,3.2,2.7,4.7,2.7,7.5-.9,5.6-2.7,7.7c-1.6,1.9-3.2,3.1-4.6,4l10.4,12c.7-.8,6.5-7.6,6.5-7.6.7-.8,1.8-.8,2.5,0s.7,2.1,0,2.9c0,0-5.8,6.8-6.5,7.6,3.1,3.6,6.7,7.9,6.7,8,.7.8.7,2.1,0,2.9-.6.8-1.8.8-2.5,0,0,0-3.8-4.4-6.7-7.9-1.5,1.8-3.5,4-4,4.5-2.2,2.6-5.1,4-8.3,4s-6-1.4-8.3-4h0ZM544.1,857.4c-1.6,1.1-3.1,2.1-4.6,4-1.5,1.9-2.4,4.2-2.4,6.8s.9,4.9,2.4,6.7c1.6,1.9,3.7,2.9,5.8,2.9s4.2-1,5.8-2.8l4-4.6-11.1-12.8h0ZM541.3,838.9c-1.1,1.3-1.7,3-1.7,4.6s.6,3.5,1.7,4.7l3.4,4c1.6-1,3.1-2.2,4.6-4,1.2-1.2,1.7-3,1.7-4.7s-.5-3.4-1.7-4.6c-1.1-1.3-2.5-2-4-2s-3,.7-4,2h0Z"/>
      <path class="st3" d="M611.9,899.6v-44c0-1.2.8-2.1,1.8-2.1s1.8.9,1.8,2.1v2.6c2-3.1,5.3-4.9,9.2-4.9,6.5,0,11.9,6.4,11.9,14.2s-5.3,14.2-11.9,14.2-7.2-1.9-9.2-4.9v22.9c0,1.2-.8,2.1-1.8,2.1s-1.8-.9-1.8-2.1h0ZM615.3,867.4c0,5.6,4,10.3,8.8,10.3s8.8-4.6,8.8-10.3-4-10.3-8.8-10.3-8.8,4.6-8.8,10.3Z"/>
      <path class="st3" d="M659.4,835.2v33.2c0,4.6,3.3,8.5,7.3,8.5s1.8.9,1.8,2.1-.8,2.1-1.8,2.1c-5.9,0-10.8-5.6-10.8-12.5v-33.2c0-1.2.8-2.1,1.8-2.1s1.8.9,1.8,2.1h0Z"/>
      <path class="st3" d="M709.2,855.6v23.7c0,1.2-.8,2.1-1.8,2.1s-1.8-.9-1.8-2.1v-2.6c-2,3.1-5.3,4.9-9.2,4.9-6.5,0-11.9-6.4-11.9-14.2s5.3-14.2,11.9-14.2,7.2,1.9,9.2,4.9v-2.6c0-1.2.8-2.1,1.8-2.1s1.8.9,1.8,2.1ZM705.8,867.4c0-5.6-4-10.3-8.8-10.3s-8.8,4.6-8.8,10.3,4,10.3,8.8,10.3,8.8-4.6,8.8-10.3Z"/>
      <path class="st3" d="M729.7,879.3v-23.7c0-1.2.8-2.1,1.8-2.1s1.8.9,1.8,2.1v1.7c1.9-2.8,4.6-4,7.8-4,5.7,0,10.3,5.6,10.3,12.5v13.5c0,1.2-.8,2.1-1.8,2.1s-1.8-.9-1.8-2.1v-13.5c0-4.6-3.3-8.5-7.3-8.5s-7.3,3.8-7.3,8.5v13.5c0,1.2-.8,2.1-1.8,2.1s-1.8-.9-1.8-2.1h0Z"/>
      <path class="st3" d="M770.3,867.4c0-7.9,5.5-14.2,12.2-14.2s6.3,1.5,8.7,4.2c.6.8.6,2.1,0,2.9-.7.8-1.8.8-2.5,0-1.7-1.9-3.9-3-6.2-3-4.8,0-8.8,4.5-8.8,10.2s4,10.2,8.8,10.2,4.5-1.1,6.2-3c.7-.8,1.8-.8,2.5,0,.6.8.6,2.1,0,3-2.4,2.7-5.4,4.1-8.7,4.1-6.7,0-12.2-6.4-12.2-14.2v-.2Z"/>
      <path class="st3" d="M810.2,879.3v-44c0-1.2.8-2.1,1.8-2.1s1.8.9,1.8,2.1v22c1.9-2.8,4.6-4,7.8-4,5.7,0,10.3,5.6,10.3,12.5v13.5c0,1.2-.8,2.1-1.8,2.1s-1.8-.9-1.8-2.1v-13.5c0-4.6-3.3-8.5-7.3-8.5s-7.3,3.8-7.3,8.5v13.5c0,1.2-.8,2.1-1.8,2.1s-1.8-.9-1.8-2.1h0Z"/>
      <path class="st3" d="M874.8,867.4c0,1.1-.7,1.9-1.7,1.9h-19.2c.8,4.6,4.3,8.3,8.6,8.3s4.5-1.1,6.2-3c.7-.8,1.8-.8,2.5,0,.6.8.6,2.1,0,3-2.4,2.7-5.4,4.1-8.7,4.1-6.7,0-12.2-6.4-12.2-14.2s5.5-14.2,12.2-14.2,6.3,1.4,8.6,4c2.3,2.6,3.7,6.2,3.7,10.2h0ZM854,865.5h17.2c-.8-4.6-4.3-8.3-8.6-8.3s-7.8,3.6-8.6,8.3Z"/>
      <path class="st3" d="M895.4,879.7c-1.8-1.4-2.8-3.4-3-5.5,0-1.2.6-2.1,1.7-2.2.9,0,1.7.8,1.9,1.9.4,2.3,2.5,3.9,5.2,3.9s5.2-2.3,5.2-4.2c0-3.2-3.8-4-5.4-4.2-2.4-.3-4.2-1-5.6-2.2-1.7-1.4-2.6-3.4-2.6-5.6s.9-4.3,2.5-5.9c1.5-1.4,3.6-2.3,5.8-2.3,4,0,7.4,2.6,8.3,6.5.3,1.1-.3,2.2-1.2,2.5s-1.9-.3-2.2-1.4c-.5-2.1-2.5-3.6-4.9-3.6s-4.8,1.8-4.8,4,3.2,3.6,5,3.8c2.4.3,4.3,1,5.7,2.2,1.8,1.5,2.8,3.6,2.8,6s-1,4.4-2.8,6c-1.7,1.5-3.8,2.3-6,2.3s-4.2-.8-5.8-2.1l.2.2Z"/>
    </g>
  </g>
</svg>