<?xml version="1.0" encoding="UTF-8"?>
<svg id="Calque_1" xmlns="http://www.w3.org/2000/svg" version="1.1" width="1056" height="940" viewBox="0 0 1056 940">
  <!-- Generator: Adobe Illustrator 29.3.1, SVG Export Plug-In . SVG Version: 2.1.0 Build 151)  -->
  <defs>
    <style>
      .st0 {
        fill: #fff;
      }

      .st1 {
        fill: none;
      }

      .st2 {
        fill: #f2be2f;
      }
    </style>
  </defs>
  <path class="st2" d="M770.3,476.7c-2.5-23.8-7.6-46.4-17.2-68.1-12.4-28.1-25.2-33.6-46.5-50.4-1.1-.9-12.5-13.5-13-14.5-.3-.7-4.5-12.6-4.7-13.3-2.7-9.8,1-42.3,0-55.7-3.4-45.8-46.8-60.1-50.1-107.1-.5-6.7.4-13.7,0-20.5,15.7-6.8,5.7-16.4,4.7-28.4-1-12.5,2.8-22.1,3.2-34.1,3.5-.5,5.5.7,6.3-4.2.5-2.9-1.5-20.4-2.3-24.2-2.1-10.5-6-11.5-15-13.2-23.7-4.5-58.2-3.4-82.9-3.3-15.7,0-29.8-.3-45.4,1.7-4.1.5-6.8.6-10.9,1.7-1.7.5-3,.9-4.7,1.7-12.3,5.8-8.5,24.9-10.8,37.1,1,3.3,3.8,2.4,6.1,2.7,0,5.3.5,11.9,1.7,17,.6,2.6,4.1,2.6,3,12.9-.8,8.6-7.9,19.2-3,27.3,1.7,2.7,5.4,2.5,6.1,6.8,4.1,22.9-4.1,43.3-15.9,61.2-12.3,18.8-25.3,27.4-31,51-7.2,30,5.3,72.8-18,94.8-17.6,16.7-25.6,15.3-41.5,39.9-36.4,56.3-26.3,138.1-26.6,204.4v53.2c-.2,70.9-4.1,150.4,0,220.3.2,3.6,1.1,7.2,1.6,10.7.9,6.6,0,8.3,4.1,14.8,11.9,18.8,39.4,22.8,58.6,25,6.9.8,6.6,3,7.4,3.2,84.5,15.8,175.5,14.8,260.1,0,25.6-4.4,69.8-7,76.7-39.9,2.6-136.1,2.6-274.4,0-410.5h0Z"/>
  <rect class="st2" x="-16" y="179" width="575.7" height="761"/>
  <rect class="st1" x="18.4" y="2" width="778.3" height="937"/>
  <path class="st2" d="M1007.1,407.2c-1.8-30.5-6.4-62-18-90.2-10.1-24.7-27.2-45.6-50.8-57-24.2-11.8-47.2-5.6-70.9,5.3-13.2,6.1-50.5,21.8-52.7,1.6-2-18.3-3-64.4-4.4-77-.6-5-1.6-8.7-2.6-11.3,4.8-8.9,7.1-20.6,2.4-29.9-2.7-5.4-7.4-8.9-11.3-13.3-6.2-7-6.6-15.8-7.3-25-.9-11.6-2.4-23.4-11.6-31-8.3-6.8-19.4-9.2-29.6-9.3-9.8,0-18.2-.7-26.8-6.4-6.6-4.4-11.6-11.5-17.1-17.1-9.8-9.8-25-17.5-38.4-17.5,0,0,.3,0,.9.2-4.1-.7-8.3-.9-12.4-.9,2.4-.2,4.1-.3,4.1-.3,0,0-5.4-2-12.9-1.2-7.6.8-17.3,4.4-23.4,4.4-12.6,0-23.6-8.5-34.1-15-17.9-11.1-38.4-16.1-59.1-11.9-10.3,2.1-20,6.6-28.3,13.2-8.7,6.9-15.7,15.8-24.8,22.1-21.2,14.9-47.1-2.4-68.6,9.9-15.5,8.8-24.8,25.3-26.3,44.1-.6,6.7.8,17.8,1,18.2-.4,3.7-1.3,7.5-2.4,11.6-9.8,17.8-9.4,39.2,5,53.8-13.8,69-13,143.2-16.4,213.4-3.8,78.4-5.8,157-4.3,235.5.8,37,2.4,74,5,111,2.1,29.3,1.3,66,12.5,93.7,4.7,11.5,12,20.4,20.8,27.4-1.4,10.1,6.3,22.8,12,29.6,8.9,10.7,20.9,17.5,33.2,22.9,27.5,12,57.1,21.5,87,20.3v-.3c4.8.6,9.7,1.2,14.7,1.6h0c23.8,4.6,48.1,5.6,72.4,5.6s51.2-.7,76.4-3.2c21.6-2.1,42.2-8,59.9-21.6,15.1-11.6,29.5-28.1,29.8-48.9,5.7-4.8,10.9-10.2,15.2-16.5,7.8-11.5,10.5-24,11.9-37.8,1.2-11.6,0-26.8,3.2-37.7,9.2-29.6,28.2-29.2,48.9-32.6,12.5-2.1,24-5.7,35.1-10.2.9-.4,2-.8,2.9-1.2.3,0,.7-.3.9-.4,1.3-.6,2.6-1.2,3.9-1.8,5.7-2.6,11.2-5.4,16.8-8.4,15.8-8.6,35.5-32.4,49.1-91.5,4-17.2,10.8-41.8,14.1-59.2,4.4-23,7-55.3,6.9-54.8-.6,5.7-1.6,11.8-2.6,18.1,1.5-9.2,2.7-18.5,3.9-27.5v2.5c0,1.1,6.2-31.7,7.2-47.4,1-16.9,1.3-33.8.3-50.6h0ZM900,641.3c-10.2,10.3-23.6,18.5-36.7,23.7-4.8.9-9.5,1.2-13.9,1-3.9-.8-23.9-5.8-26.5-22.8-3.1-20.9-1.3-60.5-.9-80.6.7-32.4,1.9-65,1.3-97.4-.6-30.2-9-73.7-1.4-90.1,14.1-30.6,69.7-47.9,101.8-30,2,1.7,3.8,3.5,5.5,5.4,15.8,23.6,19.4,55.4,20,83.9.6,30.4,0,61-5.1,91-4.8,28.7-12.1,57.5-23.7,83.9-5.2,11.7-11.4,23.1-20.3,32.1h0ZM614.6,34.6h-.2.2ZM614,34.5c-2.3-.5-4.4-1.4-6.4-2.5,2.1,1,4.2,1.8,6.4,2.5ZM381.8,123.8c-.3,1.1-.7,2.3-.9,3.4.5-1.9.8-3.1.9-3.4ZM814.1,762.8v-2.4h0c1.7-2.9,3.6-5.3,5.7-7.4-2.3,3-4.2,6.2-5.8,9.8h0Z"/>
  <g>
    <path class="st2" d="M1003.4,408.2c-1.8-30.1-6.4-61.3-17.8-89.1-10-24.4-26.9-45.1-50.1-56.3-23.9-11.6-46.5-5.5-69.9,5.2-13,6-49.8,21.5-52,1.5-2-18.1-2.9-63.6-4.4-76-.6-5-1.6-8.6-2.6-11.2,4.8-8.8,7-20.3,2.4-29.5-2.6-5.4-7.3-8.8-11.2-13.1-6.1-7-6.5-15.6-7.3-24.7-.8-11.5-2.4-23.1-11.5-30.6-8.2-6.8-19.1-9-29.2-9.2-9.7,0-18-.7-26.5-6.3-6.5-4.3-11.4-11.4-17-16.9-9.6-9.7-24.7-17.2-38-17.2,0,0,.3,0,.9.2,1.8.5,6.2,1.9,13.4,5.7,5.7,3,13.3,6.9,19.4,12.8,11.3,10.8,21.7,24.8,33.7,27.4,12.2,2.7,25.2-1.1,36.8,5.4,14.2,7.9,11.8,23.1,13.1,37.3.5,4.8,1.3,9.6,3.5,13.9,3,6,8.4,9.5,12.2,14.8,10.2,13.9-1.1,32.5-12.9,40.5-27.6,18.8-60.5.5-89.2-4.1-15.8-2.6-33,6.7-39.8,21.7-6.2,13.8-2.9,22.3-2.8,21.2h0v6.1h0c-.2-.7-.7,14.3-1.8,20.2-1.4,7.9-4.7,15.4-10.4,20.8-6.1,5.9-15.1,7.1-21.5,1-3.7-3.5-5.3-11.2-7.3-15.7h0c-.4-1.1-.8-2.1-1.2-3-.3-.5-.7-.8-.9-1.2-2.5-4.5-5.5-7.4-11.5-8.5-9.3-1.8-20.3,3.1-28.6,7.1-11.8,5.7-25.7,13.8-38.8,7.5-8-3.8-13.9-13.4-22.2-16.7-17.1-6.7-31.1,12-33.1,28.7-1.6,13.6,1.8,26.8,4.9,39.9,1.7,7,4.1,15.9,4.3,24.9.4,9.6-.8,18.7-1.2,21.8-.8,4.4-1.9,8.7-3.6,12.8l-.4-.3c-3.8,6.3-8,13.1-14.2,17-9,5.7-19,1.4-24.6-7.4-7.9-12.6-9-31-9.4-45.6-.7-31.9,9.7-61,14.2-92.1,3.1-21.7-.7-50.7-23.8-58.3-6.3-2.1-13-2.3-19.1-4.8-5.9-2.4-11.1-6.5-15.4-11.5-4.2-5.1-8.5-11.5-9-19.7-.6-8.7,1.3-17.9,2.6-22.9.5-1.8.8-3,.9-3.4v-.3h0c-9.6,17.6-9.3,38.7,5,53.1-13.6,68.2-12.9,141.4-16.2,210.8-3.8,77.5-5.8,155-4.3,232.6.8,36.6,2.3,73.1,4.9,109.6,2.1,28.9,1.3,65.2,12.3,92.5,4.6,11.4,11.8,20.2,20.5,27.1-1.4,9.9,6.2,22.5,11.8,29.2,8.8,10.5,20.6,17.3,32.8,22.6,27.2,11.9,56.3,21.2,85.9,20v-.3c4.8.6,9.6,1.1,14.5,1.6h0c23.6,4.6,47.5,5.6,71.4,5.5,25.1,0,50.5-.7,75.5-3.1,21.3-2,41.6-7.9,59.2-21.3,14.9-11.4,29.2-27.7,29.4-48.3,5.7-4.7,10.8-10.1,15-16.3,7.7-11.3,10.4-23.7,11.8-37.4,1.2-11.4,0-26.5,3.2-37.2,9-29.3,27.9-28.9,48.2-32.2,12.3-2,23.7-5.6,34.6-10.1.9-.4,1.9-.8,2.9-1.2.3,0,.7-.3.9-.4,1.3-.6,2.5-1.2,3.9-1.8,5.7-2.6,11.1-5.4,16.6-8.3,15.6-8.5,35.1-32,48.5-90.4,3.9-17,10.6-41.3,13.9-58.4,4.4-22.7,6.9-54.6,6.8-54.2-.6,5.6-1.5,11.7-2.6,17.9,1.4-9.1,2.7-18.2,3.9-27.2v2.4c0,1.1,6.1-31.4,7.1-46.8,1-16.7,1.3-33.4.3-50v.2h0ZM897.6,639.5c-10.1,10.2-23.3,18.3-36.3,23.4-4.8.9-9.3,1.2-13.7.9-3.9-.8-23.7-5.7-26.1-22.5-3-20.6-1.3-59.7-.9-79.6.7-32,1.9-64.2,1.2-96.2-.6-29.9-9-72.8-1.4-89,13.9-30.2,68.8-47.3,100.4-29.7,1.9,1.6,3.7,3.4,5.4,5.3,15.5,23.3,19.2,54.7,19.7,82.9.6,30.1,0,60.2-5,89.9-4.8,28.3-11.9,56.8-23.5,82.9-5.1,11.6-11.2,22.8-20.1,31.7h.2ZM812.8,759.4v-2.4h0c1.7-2.8,3.6-5.2,5.7-7.3-2.2,3-4.1,6.1-5.7,9.7h0Z"/>
    <path class="st2" d="M388.1,116.7c1.4-7.2.8-19.7,3.5-29.3,4-14,13.1-25.1,28.7-29.6,11.5-3.3,23.6-.4,35.1-.4s18.4-2.1,26.5-7.5c7.6-5.1,13.9-12,20.5-18.2,8.7-8,18.3-13.7,29.5-16.4,22.6-5.4,43.3,1.9,62.5,14.1,4.5,2.9,9.3,5.8,14.2,8.1,2.1,1,4.2,1.8,6.4,2.5h.5c2.4.7,4.7,1.2,7.2,1.4,6.5.5,15.4-3.4,23.3-5.5,4.2-1.1,8.2-1.6,10.9-1.9,2.4-.2,4-.3,4-.3,0,0-5.4-2-12.7-1.2-7.5.8-17.1,4.4-23.1,4.4-12.5,0-23.3-8.4-33.6-14.8-17.7-11-38-15.9-58.3-11.8-10.1,2.1-19.7,6.5-28,13.1-8.5,6.8-15.5,15.6-24.5,21.8-20.9,14.7-46.5-2.4-67.7,9.8-15.3,8.7-24.4,25-26,43.6-.6,6.6.8,17.6,1,17.9h0l.2.2h0Z"/>
    <path class="st2" d="M719.9,92.6c-.8-.4-1.6-.8-2.5-.8h-2.8c-.6-.3-1.1-.4-1.7-.6l-1.6-.5-.8-.2h-.4c-.9-.5-1.9-1.1-2.7-1.8h-1.8l-.4,1.8c.8,1.1,1.6,2.2,2.5,3.1.6.6,1.1,1.1,1.8,1.6.5.4.8.7,1.4,1,1.2.6,2.5,1.1,3.9,1.5.8.2,1.6.3,2.4.4,1,0,1.9-.2,2.8-.7.9-.6,1.3-1.9,1-3.1-.2-.6-.5-1.2-1-1.5h0v-.2Z"/>
    <path class="st2" d="M736.6,87.3c-.7-1.6-2.3-2-3.8-2-5.4,0-10.5-.6-15.5-2.9-5.7-2.7-10.6-7-14.1-12.5-.7-1-2,0-1.5.9,5,10.1,14.4,17.4,24.9,19.9.6,0,1.3.3,2,.5,2.3.5,5,.9,6.8-.2.9-.6,1.5-1.8,1.3-2.9,0-.2,0-.5-.2-.7h0Z"/>
    <path class="st2" d="M615.6,242.5l1.2,1,.3.2h0l.6.6c1.5,1.3,2.9,2.9,4.2,4.4.8.9,2.4.9,3.2,0,.8-1,.8-2.4,0-3.4-2.9-3.3-7-5.6-11.1-6.7-1.2-.4-2,1.5-.8,2.2.8.5,1.7,1.1,2.4,1.7h0Z"/>
    <path class="st2" d="M595.4,241.5v.9c2.4,0,4.9.6,7.3,1.4,4,1.3,7.7,3.3,10.8,6.2,2.4,2.2,4.4,4.7,6,7.5.8,1.4,1.6,2.9,2.3,4.4.4.8.7,1.7,1,2.5.5.8,1.2,1.3,1.9,1.8.4.4.8.4,1.3.3.4-.1.8-.4.8-.9.3-.9.6-1.9.5-2.9s-.7-2.2-1.1-3.1c-.8-1.8-1.7-3.3-2.8-4.8-2.3-3-4.9-5.6-7.9-7.8-5.9-4.2-13.1-6.3-20.3-5.6h.2,0Z"/>
    <path class="st2" d="M471.2,366.4c1.7-2.6,3.2-5.3,4.4-8.1.7-1.5,1.1-3.1,1.5-4.8.5-1.8,1.1-4.1.7-5.9-.8-2.6-4.1-3.1-5.4-.7-.7,1-.7,2.2-.8,3.4v.5l-.2,1.1c-.3,1.5-.6,3-.8,4.5-.5,3-1.3,5.9-2.3,8.7-.3.8.3,1.8.9,2.1.8.3,1.6,0,2.1-.7h0Z"/>
    <path class="st2" d="M470.7,377.9c5.8-3.2,9.7-9.6,11.5-16.2,1-3.9,1.5-8,1.8-12.1v-6.7c0-2.2,0-4.6-.7-6.8-.5-1.8-2.8-1.7-3.3,0-.2.7-.4,1.5-.5,2.3-.5,3-.4,6.3-.5,9.2,0,4-.2,7.9-.9,11.9-1.1,5.6-3.1,10.7-6.6,14.9-.6.7-1.1,1.4-1.8,2.1-.8.7.2,1.9,1,1.4h0Z"/>
    <path class="st2" d="M407.5,159.3c1.2,1,2.5,1.7,4.1,2.3.7.2,1.3.4,2,.6.6.1,1.2.2,1.8,0l1.2-.7c1-.8.9-2.1,0-2.9h0l-.7-.6-1.2-.4h-.8c0-.1-.9-.4-.9-.4l-.8-.3h0l-.4-.2c-.6-.3-1.1-.6-1.7-1l-.4-.3h0l-.7-.6-1.4-1.4c-.8-.9-1.4-1.8-2-3.1-.3-.6-1-.8-1.6-.6-.7.3-.8.9-.8,1.6.3,1.5.8,3,1.5,4.4.8,1.5,1.9,2.7,3.2,3.8l-.3-.2h0Z"/>
    <path class="st2" d="M396.9,156.2c-.8-1.5-1.3-3.2-1.6-4.9s0-3.5-.3-5.2c-.2-2-1.9-3-3.3-2.5-.5.2-1,.5-1.4,1.1-2.4,3.8-1,9,.7,12.8,1.6,3.7,4.1,7.1,6.7,10,4.1,4.7,9.5,8.3,15.3,10.6,1.3.5,2.6,1,4,1.4,1.1.3,1.8-1.3.8-2-5.7-3.6-10.6-8-15.2-13.2-2.2-2.5-4.1-5.2-5.7-8.3v.2h0Z"/>
    <path class="st2" d="M766.5,183.6c1.9-.5,3.8-1.4,5.5-2.3.8-.5,1.7-.9,2.4-1.5.8-.6,2-1.1,2.4-2.2.5-1.1-.3-2.1-1.4-1.9-.9.1-1.7.9-2.4,1.4-.8.5-1.6,1.1-2.4,1.5-1.6.9-3.2,1.5-4.9,2.2-3.5,1.3-7.2,2.1-10.9,2-.9,0-.9,1.4,0,1.5,4,.5,8,.2,11.8-.9v.2h0Z"/>
    <path class="st2" d="M729.8,184.9l-.2.9c4.7,2,9.3,4.1,14.2,5.3,4.4,1.1,9,1.8,13.6,1.9,2.8,0,6-.1,9.2-.7,5.1-1,10.2-3.1,13-7.2h0c.4-.9-.5-1.7-1.2-1.5-3.8.8-7.1,2.5-10.7,3.5-3.8,1-7.7,1.4-11.6,1.5-4.4,0-8.9-.4-13.3-1.2-4.3-.8-8.7-1.4-13-2.3v-.2Z"/>
  </g>
  <path class="st0" d="M801.5,152.3c-3.9-5.2-9.2-8.8-12.2-14.8-2.2-4.3-3-9.1-3.5-13.9-1.4-14.2,1.1-29.4-13.1-37.3-11.7-6.4-24.6-2.6-36.8-5.4-12.1-2.7-22.4-16.6-33.7-27.4-6.1-5.9-13.9-9.8-19.4-12.8-7.2-3.8-11.6-5.2-13.4-5.7-4.1-.7-8.1-.9-12.2-.9-2.8.3-6.7.8-10.9,1.9-7.9,2-16.8,6-23.3,5.5-2.4-.2-4.8-.7-7.2-1.4h-.5c-2.3-.5-4.3-1.4-6.4-2.5-4.9-2.3-9.6-5.2-14.2-8.1-19.2-12.2-39.9-19.6-62.5-14.1-11.2,2.7-20.9,8.4-29.5,16.4-6.7,6.2-13,13.1-20.5,18.2-8.1,5.4-17.1,7.4-26.5,7.5-11.7,0-23.7-2.9-35.1.4-15.6,4.5-24.8,15.6-28.7,29.6-2.7,9.7-2.1,22.1-3.5,29.3h0c-.4,3.6-1.2,7.4-2.4,11.4h0v.3c-.3,1.1-.6,2.3-.9,3.4-1.2,5-3.2,14.2-2.6,22.9.6,8.1,4.8,14.6,9,19.7,4.2,5,9.4,9.1,15.4,11.5,6.2,2.5,12.9,2.8,19.1,4.8,14.1,16.1,26.9,15.5,23.8,37.3-4.5,31.1-14.9,38.2-14.2,70.1.3,14.6,1.4,33,9.4,45.6,5.6,8.8,15.5,13.1,24.6,7.4,6.2-3.9,10.4-10.7,14.2-17l.4.3c1.7-4.1,2.7-8.4,3.6-12.8.5-3.1,1.6-12.2,1.2-21.8-.3-9-2.6-16-4.3-22.9-3.1-13-1-7-4.9-19.9,2-16.7,15.9-14.4,33.1-7.7,8.3,3.3,14.2,12.8,22.2,16.7,13.1,6.3,27-1.9,38.8-7.5,8.3-4,19.2-8.9,28.6-7.1,6,1.2,9,4,11.5,8.5.3.4.7.7.9,1.2.5.9.8,1.9,1.2,2.9h0c2.2,4.6,3.8,12.4,7.3,15.8,6.4,6.1,15.4,4.9,21.5-1,5.7-5.5,8.9-12.9,10.4-20.8,1.1-5.9,1.6-21,1.8-20.2h0v-6.1h0c0,1.1-3.4-7.4,2.8-21.2,6.8-15,23.8-24.3,39.8-21.7,28.6,4.6,61.6,22.9,89.2,4.1,11.8-8,23.1-26.6,12.9-40.5l-.2-.2h0ZM754.6,182.9c3.8,0,7.4-.7,10.9-2,1.7-.6,3.3-1.3,4.9-2.2.8-.5,1.7-1,2.4-1.5s1.5-1.3,2.4-1.4c1-.2,1.9.8,1.4,1.9-.5,1-1.5,1.6-2.4,2.2-.8.5-1.6,1-2.4,1.5-1.7.9-3.6,1.8-5.5,2.3-3.9,1.1-7.9,1.3-11.8.9-.9-.1-.9-1.5,0-1.5v-.2h0ZM703.3,69.8c3.5,5.5,8.4,9.8,14.1,12.5,5,2.4,10.1,3.1,15.5,2.9,1.5,0,3.1.4,3.8,2,0,.2,0,.5.2.7.2,1.1-.4,2.3-1.3,2.9-1.8,1.1-4.5.7-6.8.2-.8-.2-1.4-.3-2-.5-10.5-2.4-19.9-9.8-24.9-19.9-.6-1.1.8-1.9,1.5-.9h0ZM625.1,248.6c-.8.9-2.4.9-3.2,0-1.3-1.5-2.7-3.1-4.2-4.4l-.6-.5h0l-.3-.3-1.2-1c-.8-.6-1.6-1.2-2.4-1.7-1.1-.7-.4-2.6.8-2.2,4.1,1.2,8.1,3.4,11.1,6.7.8,1,.8,2.4,0,3.4h0ZM469.1,324.1c-.7-.3-1.2-1.3-.9-2.1,1-2.8,1.8-5.8,2.3-8.7.3-1.5.6-3,.8-4.5l.2-1.1v-.5c0-1.2.2-2.3.8-3.4,1.4-2.3,4.6-1.9,5.4.7.6,1.8-.2,4.1-.7,5.9-.4,1.6-.8,3.2-1.5,4.8-1.2,2.8-2.7,5.6-4.4,8.1-.5.7-1.2,1.1-2.1.7h0ZM719.9,97.2c-.9.5-1.8.9-2.8.7-.8,0-1.6-.2-2.4-.4-1.3-.3-2.6-.9-3.9-1.5-.6-.3-.9-.6-1.4-1-.6-.5-1.1-1.1-1.8-1.6-.9-.9-1.8-2-2.5-3.1l.4-1.9h1.8c.8.8,1.8,1.4,2.7,1.9h.5l.8.3,1.6.5c.6.2,1.1.3,1.7.5h.8l.4.2h1.7c.9,0,1.7.4,2.5.8.6.3.9.9,1,1.5.3,1.1,0,2.5-1,3.1h0ZM403.4,149.5c.6-.3,1.3,0,1.6.6.6,1.3,1.1,2.2,2,3.1l1.4,1.4.7.6h0l.4.3c.6.4,1.1.7,1.7,1l.4.2h0l.8.4.9.3h.5c0,.1.2.1.2.1h.2l1.2.4.7.5h0c.9.9,1,2.2,0,3l-1.2.7c-.6.2-1.2,0-1.8,0-.7-.1-1.3-.3-2-.6-1.4-.6-2.8-1.3-4.1-2.3-1.3-1.1-2.4-2.3-3.2-3.8-.8-1.4-1.2-2.8-1.5-4.4,0-.7,0-1.3.8-1.6h.4ZM397.7,167.7c-2.6-3-5.1-6.3-6.7-10-1.7-3.9-3.1-9-.7-12.8.4-.6.8-.9,1.4-1.1,1.4-.5,3.1.5,3.3,2.5.2,1.7,0,3.5.3,5.2s.8,3.3,1.6,4.9c1.5,3,3.5,5.8,5.7,8.3,4.5,5.2,9.4,9.6,15.2,13.2,1,.6.3,2.3-.8,2-1.3-.4-2.6-.9-4-1.4-5.7-2.3-11.1-5.8-15.3-10.6v-.2h0ZM479.9,293.1c.6-1.7,2.8-1.8,3.3,0,.7,2.2.7,4.5.7,6.8v6.7c-.3,4.1-.8,8.2-1.8,12.1-1.8,6.6-5.7,13-11.5,16.2-.8.5-1.8-.7-1-1.4.7-.6,1.2-1.4,1.8-2.1,3.5-4.2,5.5-9.3,6.6-14.9.8-3.9.8-7.9.9-11.9,0-3,0-6.2.5-9.2,0-.8.3-1.6.5-2.3h0ZM624.8,266.3c-.7-.6-1.4-1.1-1.9-1.8-.4-.8-.7-1.7-1-2.5-.7-1.5-1.4-3-2.3-4.4-1.6-2.8-3.7-5.4-6-7.5-3.1-2.9-6.9-4.9-10.8-6.2-2.4-.8-4.8-1.3-7.3-1.4v-.9c7.1-.7,14.3,1.4,20.3,5.6,3,2.1,5.7,4.7,7.9,7.8,1.1,1.5,2.1,3.1,2.8,4.8.4.9.9,2.1,1.1,3.1,0,1-.2,2-.5,2.9,0,.5-.5.7-.8.9-.5.2-.9.1-1.3-.3h-.2,0ZM779.7,185.1c-2.9,4.1-7.9,6.2-13,7.2-3.2.6-6.4.8-9.2.7-4.5-.1-9.1-.8-13.6-1.9-4.9-1.2-9.5-3.3-14.2-5.3l.2-.9c4.3,1,8.7,1.5,13,2.3s8.9,1.3,13.3,1.2c3.9,0,7.8-.5,11.6-1.5,3.7-1,7-2.8,10.7-3.5.8-.1,1.6.6,1.2,1.4h0v.3Z"/>
</svg>