<?xml version="1.0" encoding="UTF-8"?>
<svg id="Calque_1" xmlns="http://www.w3.org/2000/svg" version="1.1" width="92" height="120" viewBox="0 0 92 120">
  <!-- Generator: Adobe Illustrator 29.3.1, SVG Export Plug-In . SVG Version: 2.1.0 Build 151)  -->
  <path d="M29.9,35.3c1.4,1.3,6.3-1.4,6.5-1.1.7,1,.7,3.7,3,4.3s4.2-2.6,8.1,1.7c1.9.8,1.4,7.2,3.8,6.1s1.3-7.3,1.7-9.9h9.9c-1.3-7,3.8-4.3,6.1-6.6s1.2-5,1.8-7,2.6-2.2,1.9-4.5c-1-3.5-6-3.7-6.5-4.1s.4-3.6-.1-4.3-5.5-.3-5.4-2.3c3.6,0,6.8,0,7.2,3.9s-.7,1.4-.5,1.5c.4.2,2.1,0,3.3.6,6.3,3.3,3.4,15.6-2.5,18.4s-3.9.7-4.1.9.9,1.8,1.1,2.8-.2,3.6,0,3.8c.8.9,4.8-1,6.1-1,7.3,0,14.3,7,15.8,13.9s2.2,23.6,1.4,31.8c-.6,6.4-4.9,12-10.8,14.6s-8.7,2-9.1,2.5,2.4,9.4,1,10.9-5.2,1.8-6.2,2c-11.5,2.9-31,3.7-42.5,1.1-5.3-1.2-9-2.2-9.6-8-1.2-11.3-.2-27.9,0-39.7s1.1-3.5,1.2-5.4c.3-9.5-.3-19.1,0-28.6-2.7-1.8-6.2-3.2-5.6-7.3,2,.2,2.1,3.1,3.3,3.9s6.6,1.6,7.3,1.6c2.6,0,7.1-8.4,10.9-2.2s1.5,5.3,1.7,5.5c-.3-.2-1.4.4-2-.2-2-1.8.5-6.4-3.9-5.2s-5.5,4.9-9.5,4.3v13.2s4.4-4.4,4.4-4.4c.8,1.9-3.7,6.3-3.3,6.6.6.6,5.7-2.7,6.1-3.2,1-1.5.2-4.1.5-4.5,1.6-2.2,3.1,2.8,3.3,3.9,1,9.2-.1,21.2,0,30.9,0,5.1-1.1,7.5-1.1,11s1.9,4.2,1.9,5.5-3.5,8.4-1.9,10.5,3.8-3,3.3.5l-3.3,6.1,10.9-2.3c1.8-8.2.8-16.4,1.1-24.7.4-10,1.6-20.8-1-30.8-.4-1.5,0-3.4-2.2-3.8v52.3c0,.2-1.9,2-2.2,1.7s-.1-10.8,0-12.7c.4-6.9.3-9.7,0-16.4-.4-9.7-.4-19.4,2.2-28.8s-.5-1.8,2.3-1.6c3.5,13.5,4,27.4,3.3,41.4-.1,2.5-1.3,4.6-1.2,7.7s1.3,5,1.3,7.7-1.2,10-3.4,11.1-1.9-.6-2.7-.5c-4.5.6-8.9,3.3-11.1-2.4l-4.9,1.2,1.1-7.7c-4.3,1-4-1.9-2.8-5.6s4.3-4.2,2.3-6.5l-3.8,1.2c-1.1,3.9-1.7,17.7.4,20.9s11.2,3.1,13.2,3.3c12.7,1.1,26-.4,38.4-2.4.8-.2,1.5-.8,1.7-1.6.7-2.4.3-11.1.2-14.2-.9-17.4-1.5-35.5-3.3-52.9,0-.9-1-5.8-1.1-6s-1.7,1-2.8,1.1c-1.9.2-4.6-.6-6,.6l1.6,2.6,2.8-1c0,4.2,1.6,8.6,2.2,12.7,2,14.8,3.4,31.3,4.5,46.2s-.2,7.1-1.2,8.3-3.1.1-3.3,0c-.3-.2,2.6-2.8,2.2-7.2-1.1-15.4-2.5-31-4.4-46.3-.2-1.4-.4-9.3-1.7-9.3s-.1,23.4-.6,25.9c2.1,10.7,2.3,21.6,3.3,32.5-1.4.3-1.8-3.1-1.9-4.1-.5-2.9,0-5.8-1.3-8.6l-2.8-44.6c-.9,1.6-3.7,2.2-4.5,3.2-1.6,2.2.4,4.2.6,6.2.8,12.4,1.5,25,2.3,37.4.3,4.4,1.4,14.3-4.4,14.9l2.3-1.7c-.4-8.4.3-16.9,0-25.3-.4-9-2-18.4-2.3-27.5l-2.2-5v56.2l-2.2-6c3.3-16.6-3.3-35.4.2-51.6s3.5-4.4,3.1-5.7c-.8-3-4.7,0-7-.7s-8-4.4-9.6-5.4ZM75.9,91.2c-1,1-3.9,1.9-5.2,3.1-3.1,3-2.2,5.9,2.5,4.7s11-6.6,12.4-10.8c.6-1.8,1.5-7.3,1.6-9.4.7-9-.7-26.2-6.1-33.6-4.6-6.3-17.6-7.4-14.7,2.6.7,2.6,4.4,1.3,6.5,2.3s4.4,4.2,4.9,5c5.3,7.8,4.9,29.3-1.9,36ZM24.4,48.5l-2.2,6.6c3.5.7,1.4,0,1.6-1.6s1-3.2.6-5ZM19.8,59.4l1.2-9.8c-1.7.3-2.1,2.1-2.8,3.3-2.7,4.8-7.5,12.4,1.5,6.5ZM68.4,92.6c1.9.4,2.5-.1,3.9-1.1,10.1-6.7,11.2-41.4-6.1-40.8l2.2,41.9ZM13.4,56.2c.5.6,3.1-2.2,2.2-3.3s-3.1,2.2-2.2,3.3ZM23.3,68.4c0-3.1,3.2-7.1-1.1-8.8l1.1,8.8ZM14.5,72.8l3.3-9.9c-5.4,1.7-4.4.6-4.4,6.1s-.8,4.1,1.1,3.9ZM17.8,75c1.5-3.5,3-5.6,2.2-9.9-1.3,0-2.6,3.1-3,4.1s-1.2,2.9-1.4,4.1c-.3,2.4.6,1.5,2.2,1.7-.8,1.7-.7,1.5-3.3.5-3.4-.4-3.1,8.8-.6,10.5,1-.4.5-2,1.1-3.3,1.2-2.3,3.6-4.8,4.9-7.2,0-1-1.4-.5-2.2-.5ZM23.3,82.7c.2-.3.3-6.7-.5-7.7-2.1,1.6-1.8,3.8-1.7,6.1s.9,3.1,2.2,1.6ZM20,81.6c-1.6-1.8-5.7,5.1-4.4,6.6s5.7-5.1,4.4-6.6ZM20,95.9c2.6,3.1,4.4-7.4,3.3-8.8-2.3.1-3.6,8.4-3.3,8.8ZM15.6,99.2c1.6,1.3,4.6-2.8,3.3-4.4s-3.6,4.2-3.3,4.4ZM23.3,100.3c-2.7-.9-5.1,5-4.4,5.5s3.5.5,3.3-.7l1.1-4.8Z"/>
  <path d="M53.9,5.8c-2.8-2.9-9.1-.6-12.2-.5s-3.3-1-5.7-.9c-3.9.2-5.1,2.9-6.7,3.2s-5-2.1-7.6-2.1-7.9,2-8.2,2.4c-.4.6.1,2.8-.6,4.3s-3.5,2-3.8,2.3c-.6.8.3,3.4-.7,5.4s-3.7,4.6-5,5.5c-.9-3.4,2.2-4.1,3.1-6.3s.4-3.7,1.3-5.1,2.1-.8,2.8-1.8c2.2-3-.2-5.6,6-7.3s8.1.9,11.6.6,3.4-1.9,5.6-2.2c3.6-.5,14-.5,17.6,0s3.2,1.1,4.4,2.2c1.9,1.6,2,1.7,0,3.3-1.2-.6-1.3-2.4-1.9-3Z"/>
  <path d="M20,17.7h-3.3s1.1,4.4,1.1,4.4h1.1s1.1-4.4,1.1-4.4c0,0,1-.4,1.1.7.2,2.2-1.4,6.7-3.9,5.9-4-1.2-3.3-13.9,2.7-6.6Z"/>
  <path d="M47.5,26.4c-.7.5-5.9,1.7-6.5-.5-1.2-4.2,4.1-8.1,6.1-5,.7,1.1.8,5.2.5,5.5ZM43,21.9l-.9,2.6,3.3,1.1.9-2.6-3.3-1.1Z"/>
  <path d="M50.8,11.1c-.8.8-4.9,1.5-5.5-.6-1.3-4.5,8.2-2.2,5.5.6Z"/>
  <path d="M29.9,10c2.2,2.2-5.9,5.4-4.4,1.7s3.7-2.3,4.4-1.7Z"/>
  <path d="M55.2,16.6c.3.3-1.1,2-1.7,2.2-2.5,1-3-3.5,1.7-2.2Z"/>
  <path d="M59.1,6.7c.7,0,.7,1.1,0,1.1s-.7-1.1,0-1.1Z"/>
</svg>