<?xml version="1.0" encoding="UTF-8"?>
<svg id="Calque_1" xmlns="http://www.w3.org/2000/svg" version="1.1" width="44" height="120" viewBox="0 0 44 120">
  <!-- Generator: Adobe Illustrator 29.3.1, SVG Export Plug-In . SVG Version: 2.1.0 Build 151)  -->
  <path d="M33.3,18.2c.3.2,1.4,3.6,1.2,3.8-2.3,2.3-21.9,0-22.9,1.1s-1.8,4.8-2,5.5c-.5,1.9.4,1.4,1.9,1.4l2-3c-.2,3.3-3.5,6.3-4,9.5s-.3,1.7.5,1.5c7.2-6,.4,3,.5,5.5s1.7,2.3,1.8,3c0,1.1-1.7,3.5-1.7,5.1s1.5,2.1,1.9,3.1c1.2,3.9-.8,6.5,2.7,11.3,7.1,9.6,17,1.3,19.2-7.7s.8-18.4.2-26.8-1.6-4.8-1-7.5c3.2,1.2,1.7,5.5,2,8.5,1.1,10.1,3,25.9-3.6,34.5-6.9,9-16.8,5.6-21-3.9-2.3-5.4-3.7-16.6-3.4-22.5s.7-8,.9-12.1c.4-7-2.3-10.6,6.5-11.5s16.6-.3,18.4,1.2ZM31,19c-4.6-1.3-14.3.9-19.5,0-.4,2.7.4,1.8,2.2,2.2,5.8,1.5,7.9.3,13.2-.3s5.2.3,5.5,0-1.1-1.9-1.5-2Z"/>
  <path d="M32.5,115c1.2-1.1-4.3-7.3-5.4-8.1-1.8-1.1-3.5-.7-4.6-1.4s-1.9-6.5-2-8c-.3-3.5.9-21.8,0-22.5s-2.8-.3-4.3-1.2C1.6,65.7,4.9,37.5,4.5,23.5l2-12.5c-.2,5.1.3,10.4,0,15.5s-1,3.2-1.1,4.9c-.4,9.5.3,25.3,4.3,33.8,7.3,15.6,25.7,9.1,27.7-6.8,1.5-12.1-.3-22.1-1-33.9-.3-4.3,0-8-.5-12.5s-1.6-3.1.5-3c1.8,8.3,1.1,17.1,3,25.5-.2,11,1.8,31.5-8.7,38.4-1.2.8-5,2-5.3,2.2-.3.3-.2,8.1-.1,9.4s1,3.2,1.1,4.9.4,13,0,13.5-2-1.3-2-1.5v-25.5c-4.7.2-2,2.7-2,3.5v25.5c1.5.8,4.8-1.2,4.9-1,.3.4.2,1.5,1,2.5s8.3,8.5,7,9.5-6-.2-7.5,0-3.2,1-4.9,1.1c-2.6.1-13.4.7-13.4-2.5s8.5-8.2,10.4-9.5l-8.5,10h21Z"/>
  <path d="M31,3c.3,0,.6.7,1.2.8,1.4.2,3.5-.2,4.3.7-5,4.3-12.3,3.8-18.5,4.5l-8.5-2h17.5c.1,0,1-.8,2-1s4.9.1,3.5-1-1.6.2-2.5,0-1.9-1-2-1h-15.5v-1c6,.4,12.6-.6,18.5,0Z"/>
  <path d="M19.7,57.2c0,1.7-1.4,3.1-3.1,3.1s-3.1-1.4-3.1-3.1,1.4-3.1,3.1-3.1,3.1,1.4,3.1,3.1ZM18.5,58l-1.5-2h-1l-1.5,1.5v.5s4,0,4,0Z"/>
  <path d="M27.5,51c-.1.1-3.8.2-4,0-1-.9,1.6-5,2.5-5s2.3,2.2,2.3,2.5-.8,2.4-.9,2.5Z"/>
  <path d="M24.5,30c.6.6-.2,3.5-1.5,4-3.4,1.4-.5-6,1.5-4Z"/>
  <path d="M19.5,41c1.6,1.6-1.4,4.6-3,3s2-4,3-3Z"/>
  <path d="M29.5,32v3c-3.7,0-3.7-3,0-3Z"/>
</svg>